PathFileType	4	(X/Y/Z)	Patient4_TMGait_0pt7_01_left_29.trc.trc
DataRate	CameraRate	NumFrames	NumMarkers	Units	OrigDataRate	OrigDataStartFrame	OrigNumFrames
82.840236686391	82.840236686391	5	33	mm	82.840236686391	36	       141
Frame#	Time	Sacral			L.Shoulder			Chest			R.Shoulder			Neck			R.ASIS			L.ASIS			R.Thigh.Superior			R.Thigh.Lateral			R.Thigh.Inferior			R.Patella			L.Thigh.Superior			L.Thigh.Lateral			L.Thigh.Inferior			L.Patella			L.Shank.Superior			L.Shank.Lateral			L.Shank.Inferior			R.Shank.Superior			R.Shank.Lateral			R.Shank.Inferior			R.Heel			R.Midfoot.Superior			R.Midfoot.Lateral			R.Toe			L.Heel			L.Midfoot.Lateral			L.Midfoot.Superior			L.Toe			L.Elbow			L.Wrist			R.Elbow			R.Wrist			
		X1	Y1	Z1	X2	Y2	Z2	X3	Y3	Z3	X4	Y4	Z4	X5	Y5	Z5	X6	Y6	Z6	X7	Y7	Z7	X8	Y8	Z8	X9	Y9	Z9	X10	Y10	Z10	X11	Y11	Z11	X12	Y12	Z12	X13	Y13	Z13	X14	Y14	Z14	X15	Y15	Z15	X16	Y16	Z16	X17	Y17	Z17	X18	Y18	Z18	X19	Y19	Z19	X20	Y20	Z20	X21	Y21	Z21	X22	Y22	Z22	X23	Y23	Z23	X24	Y24	Z24	X25	Y25	Z25	X26	Y26	Z26	X27	Y27	Z27	X28	Y28	Z28	X29	Y29	Z29	X30	Y30	Z30	X31	Y31	Z31	X32	Y32	Z32	X33	Y33	Z33	

36	33.842500000000	825.295484296074	997.335799455043	490.142420391909	978.699597722782	1417.385880320168	288.257942278586	1096.610474862160	1353.875300947248	441.917601252058	1028.818894558131	1438.839410279898	617.175837295933	995.988760120190	1485.089550398220	440.403815094143	1050.750630012725	934.725258819932	603.315030378264	1037.010001151071	946.213203716191	328.707617747433	1073.420905761960	724.412619999482	589.883646018111	981.460508055613	621.974865240322	654.165635806549	1059.302976662127	556.348772500443	584.389583386934	1042.089193379667	449.410937841212	604.179619513273	1115.177008681162	764.840975237826	365.789786739041	1052.258007103961	634.336417604467	302.536198571351	1151.295256144995	574.092581885515	365.498320043412	1164.982770089606	503.788116051473	373.802809321051	1146.513362479459	427.674471616912	366.365812552799	1070.970258999328	302.424422799494	318.029891972798	1139.142090792297	199.399650608956	388.695886857859	964.774555375038	384.327726576000	606.990351577947	843.344463956294	341.432944431244	663.667848273700	834.557654688907	232.363631244740	611.991862507371	634.653362404239	148.142416164418	577.747066812428	809.431132902166	122.751166787503	625.629683735985	700.957873666988	105.085186877229	655.818999623336	890.004539698487	34.111959671072	658.414894360448	1028.026812048925	37.758423548449	434.993846869562	1101.352177670836	35.911177691704	352.912615920400	1182.934850022461	98.981269714153	378.445274950216	1312.072162960426	50.283573432807	350.519779068713	861.696886466013	1079.782696369556	207.813102257456	831.497498611558	821.354104266113	233.444276405298	1173.717771006817	1139.152118560959	742.221873341698	1359.795740668381	1259.183281883720	627.513423554464	
37	33.854571428571	824.395935448315	998.898862285951	487.043110738774	979.158280451343	1418.591744348389	284.924373610677	1095.969418648223	1355.656672960546	439.629485897998	1026.770952683728	1441.094962455448	614.178677110526	995.132354767215	1486.751974738124	436.869128707573	1049.327682669504	936.426305719684	601.362556509178	1036.897295143570	947.879959633870	326.774073394089	1078.185430512440	728.152431429158	588.977372543013	989.735788124498	623.421897528106	653.564646055896	1070.509522927525	559.480594236884	584.659916379605	1055.176839432545	450.851266476530	605.543179160409	1112.928181522090	764.141310056351	361.644533794487	1046.866922584802	634.632028281559	300.212157104026	1145.778013671276	573.332293793590	362.189982840801	1158.594679493177	503.264853381919	370.774080581268	1139.557430177535	427.340206518911	363.873885772677	1062.649660502265	302.392419078879	316.909888734706	1130.914386565067	199.304230524161	387.432095330066	975.525730274825	386.691272792668	607.141451116958	851.521166842677	348.528232524848	661.823707054551	839.842195196010	239.599918498226	610.741863345927	637.772979195000	164.111108731234	573.034694080154	810.411964868083	130.143598952113	624.583094272614	700.355134545806	118.261067628369	652.641887469142	885.385309158564	36.189560396551	659.535217171900	1019.562594633380	37.689031615596	434.858414207849	1092.828722833426	35.803089696970	352.712530559359	1174.312425969908	99.168532895360	377.930774639089	1303.514898535470	50.719216705779	350.239357428237	869.567190133113	1078.182607802339	202.457789322966	847.633100215562	818.847936273690	226.295446910109	1161.780851511267	1137.295697623429	743.411760861267	1352.414605798101	1249.505328706946	628.268244543495	
38	33.866642857143	823.319866941952	1000.365889195101	484.082408415711	979.670598987362	1419.688103591546	281.677918836704	1095.197614751462	1357.325390515289	437.560074615225	1024.423463366022	1443.245332328761	611.316219966716	994.118564372998	1488.331025823412	433.424122388270	1047.735481720323	937.989639341212	599.626171990070	1036.578169980771	949.479515746428	325.040751038937	1082.914116777426	732.258383968604	588.257086387590	998.162045125890	625.341115026363	653.286597466245	1081.775089048708	563.256938784105	585.215022261484	1068.546317022117	453.096729492117	607.010580673900	1110.133045076917	763.292133557402	357.717598875799	1041.059286631793	634.966599973654	297.911538304132	1139.719786971037	572.554474921703	358.982529657222	1151.614836764224	502.701502493903	367.681917636671	1132.073033355925	427.005903833383	361.340878796159	1053.885278266146	302.299859360046	315.811927820002	1122.460625633803	199.216681687373	386.108426231844	986.858391483794	389.609716543465	607.432744881686	860.517152253916	355.890762955352	659.946699914456	846.169034838124	247.234220991329	609.335892782070	642.526499233821	179.818633551151	567.798101061150	812.660917009355	138.304054028919	623.345853919436	701.292516293296	131.761967999417	649.102832429613	882.321279867746	39.482332817389	660.821530021843	1011.056430725771	37.624779422533	434.740452240879	1084.248419683526	35.652879011512	352.524496456550	1165.678555798337	99.290112390139	377.385561500077	1294.930778608132	50.990838846170	349.949362145695	877.699854962636	1076.693771950882	197.018419533436	864.505002131701	816.686330052517	218.970972948335	1148.811252009105	1135.485086359829	744.615765957942	1344.529813063183	1238.515311599867	629.344879694437	
39	33.878714285714	822.074567573169	1001.721124442743	481.266039429881	980.211820231110	1420.635084412962	278.535631199971	1094.292564038407	1358.850650535581	435.712253289024	1021.805948911042	1445.266382245086	608.598490835344	992.968751936364	1489.803975183409	430.086951843178	1046.013738507010	939.394341558159	598.058234597923	1036.058182946158	951.020010394737	323.460972511469	1087.491055455998	736.696863784437	587.622482546007	1006.598167996339	627.759169523501	653.304519566394	1092.909479755273	567.682653837728	586.024267962548	1082.025313734617	456.158999615338	608.613103570780	1106.898271126846	762.413096048849	354.115620027562	1035.013041553231	635.388798681621	295.660323106308	1133.268641397888	571.812680339116	355.927913677149	1144.195695525086	502.135861127790	364.608485032145	1124.214875403957	426.696304987285	358.833225505210	1044.836575220386	302.191070187617	314.744411983944	1113.863445332868	199.149285624139	384.760184408331	998.619882304872	393.074673625633	607.923055514622	870.198100350535	363.383087502012	658.140759759165	853.517546107741	255.074580159416	607.886768048790	648.851461937608	194.787966495499	562.309067474562	816.289087690687	146.937621983581	621.980644879395	703.885013806961	145.100811404670	645.367131460063	881.113002475879	43.954020364170	662.156524390022	1002.521145013118	37.576304416363	434.628201992766	1075.631721925163	35.482551270518	352.344143504153	1157.046377565364	99.365900890610	376.822697169487	1286.332457228023	51.129901099668	349.659658016458	886.138799000167	1075.277695084733	191.530858232262	882.052643356657	814.879302762690	211.510926174628	1134.893509669457	1133.754492779270	745.766456810793	1336.078556179564	1226.204581878349	630.799390016459	
40	33.890785714286	820.673109837952	1002.965687197905	478.589434865954	980.742915846709	1421.410155520374	275.510846131481	1093.250401395793	1360.223843700430	434.074198806030	1018.951496731343	1447.148010515920	606.025777309711	991.704543324703	1491.157892689987	426.870381649200	1044.203516490905	940.641830528320	596.607966540226	1035.355234035064	952.516955204439	321.987287326125	1091.822618338633	741.426152445460	586.990286677035	1014.909177425419	630.677666770141	653.582603463091	1103.751025763260	572.736880223838	587.060737758601	1095.453935546117	460.023536047300	610.384362600753	1103.342608623533	761.597040994258	350.911319047027	1028.868130292469	635.918520146054	293.489448230186	1126.556942643230	571.135010658991	353.064346537484	1136.477200337509	501.593883849162	361.635689998932	1116.122371697759	426.428209589918	356.412471904811	1035.639649135205	302.101219546297	313.728447026758	1105.194496493260	199.110190362501	383.423517706167	1010.671532264721	397.055543691064	608.664703228851	880.441883708960	370.842107871568	656.526318334957	861.864618274361	262.901000196883	606.523071851437	656.652610796758	208.575750413026	556.884886702686	821.399104542705	155.687610710718	620.572566107166	708.215892605570	157.772134528533	641.634408957373	882.027556078569	49.405072761011	663.416447880464	993.969143256858	37.549120888215	434.515025381463	1066.997676928141	35.311562396672	352.169906202628	1148.423125259582	99.417898929479	376.256302117635	1277.729108374155	51.179465364052	349.376753732117	894.928519959401	1073.915465993411	186.035020500304	900.223485369528	813.447386824172	203.959323500950	1120.121046406697	1132.143370339884	746.793026397588	1326.994682924024	1212.564684865901	632.708672705481	
